<svg width="87.466" height="59.35" viewBox="0 0 87.466 59.35" xmlns="http://www.w3.org/2000/svg"><g id="svgGroup" stroke-linecap="round" fill-rule="evenodd" font-size="9pt" stroke="#000" stroke-width="0.0mm" fill="#ec4899" style="stroke:#000;stroke-width:0.0mm;fill:#ec4899"><path d="M 78.771 44.112 L 80.822 42.554 A 17.202 17.202 0 0 1 80.945 42.096 Q 81.297 40.844 82.38 37.345 Q 83.521 33.66 83.851 32.527 A 22.387 22.387 0 0 0 83.939 32.218 A 32.634 32.634 0 0 1 82.536 35.691 Q 81.234 38.42 79.612 40.236 Q 78.01 42.029 76.549 42.155 A 2.556 2.556 0 0 1 76.331 42.164 A 3.108 3.108 0 0 1 73.977 41.154 A 4 4 0 0 1 73.767 40.913 Q 72.963 39.911 72.802 38.252 A 9.016 9.016 0 0 1 72.762 37.386 A 19.023 19.023 0 0 1 72.904 35.226 Q 73.171 32.926 73.938 29.616 A 110.891 110.891 0 0 1 74.772 26.271 A 302.189 302.189 0 0 0 75.008 25.381 Q 75.734 22.621 75.775 22.21 A 0.425 0.425 0 0 0 75.777 22.169 Q 75.695 21.574 75.859 21.349 A 2.448 2.448 0 0 1 76.251 20.927 A 1.528 1.528 0 0 1 77.254 20.549 A 1.12 1.12 0 0 1 77.574 20.591 Q 77.928 20.697 78.02 21.07 A 1.245 1.245 0 0 1 78.053 21.369 Q 78.053 22.015 76.926 26.68 A 378.609 378.609 0 0 1 76.495 28.445 Q 75.15 33.893 74.966 36.237 A 8.585 8.585 0 0 0 74.936 36.904 A 13.655 13.655 0 0 0 74.961 37.758 Q 75.039 39.007 75.37 39.49 A 0.914 0.914 0 0 0 75.459 39.601 A 1.69 1.69 0 0 0 76.682 40.154 A 2.043 2.043 0 0 0 76.741 40.154 A 2.369 2.369 0 0 0 77.926 39.808 Q 78.762 39.327 79.638 38.182 A 13.16 13.16 0 0 0 80.145 37.468 A 17.249 17.249 0 0 0 81.406 35.181 Q 82.407 33.022 83.211 30.065 A 911.969 911.969 0 0 0 83.792 27.916 Q 84.416 25.6 84.766 24.237 A 101.335 101.335 0 0 0 84.954 23.492 A 26.485 26.485 0 0 1 85.151 22.745 Q 85.434 21.731 85.671 21.289 A 1.581 1.581 0 0 1 85.764 21.133 Q 86.113 20.631 86.79 20.631 A 1.371 1.371 0 0 1 87.032 20.651 Q 87.452 20.726 87.466 21.097 A 0.688 0.688 0 0 1 87.466 21.123 A 1.92 1.92 0 0 1 87.438 21.365 Q 87.266 22.445 86.065 27.784 A 1050.589 1050.589 0 0 1 85.631 29.706 A 4859.427 4859.427 0 0 0 84.835 33.218 Q 83.921 37.26 83.413 39.552 A 471.95 471.95 0 0 0 83.139 40.79 A 34.683 34.683 0 0 0 83.913 40.093 A 25.991 25.991 0 0 0 84.595 39.437 Q 85.082 38.95 85.485 38.583 A 16.253 16.253 0 0 1 85.723 38.37 A 2.782 2.782 0 0 1 85.976 38.172 Q 86.251 37.983 86.482 37.948 A 0.684 0.684 0 0 1 86.585 37.94 A 1.269 1.269 0 0 1 86.879 37.971 Q 87.364 38.087 87.364 38.637 A 1.197 1.197 0 0 1 87.229 39.18 A 1.706 1.706 0 0 1 87.036 39.478 A 77.295 77.295 0 0 1 84.795 41.405 A 59.711 59.711 0 0 1 82.668 43.087 Q 80.904 52.787 79.304 55.863 A 7.069 7.069 0 0 1 78.434 57.17 A 8.164 8.164 0 0 1 78.176 57.463 A 6.333 6.333 0 0 1 76.922 58.575 A 4.519 4.519 0 0 1 74.382 59.35 Q 72.25 59.35 71.081 57.781 A 7.015 7.015 0 0 1 70.391 56.664 Q 69.912 55.678 69.912 54.725 A 10.099 10.099 0 0 1 69.977 53.542 Q 70.067 52.78 70.281 52.152 Q 70.65 51.065 71.286 50.162 A 9.827 9.827 0 0 1 72.783 48.491 A 23.984 23.984 0 0 1 74.621 47.01 A 24.814 24.814 0 0 1 74.629 47.004 A 53.384 53.384 0 0 1 76.669 45.589 A 45.192 45.192 0 0 0 78.771 44.112 Z M 3.323 1.6 L 11.916 1.764 A 5.556 5.556 0 0 1 12.185 1.098 Q 12.722 0 13.515 0 Q 14.077 0 14.218 0.642 A 1.686 1.686 0 0 1 14.233 0.718 L 14.315 1.559 L 14.274 1.764 A 80.077 80.077 0 0 0 15.248 1.724 Q 15.694 1.703 16.094 1.678 A 47.027 47.027 0 0 0 16.356 1.661 Q 17.268 1.6 18.058 1.549 A 173.727 173.727 0 0 0 18.502 1.519 Q 19.011 1.485 19.73 1.434 A 816.865 816.865 0 0 0 20.426 1.384 A 42.759 42.759 0 0 1 22.088 1.3 A 56.525 56.525 0 0 1 23.913 1.272 L 25.43 1.272 A 3.794 3.794 0 0 0 25.842 1.249 A 4.315 4.315 0 0 0 25.984 1.231 Q 26.327 1.319 26.506 1.482 A 0.578 0.578 0 0 1 26.702 1.928 Q 26.702 3.199 24.651 3.199 A 78.747 78.747 0 0 0 21.174 3.279 A 95.883 95.883 0 0 0 18.95 3.404 A 127.003 127.003 0 0 1 16.053 3.569 A 93.635 93.635 0 0 1 13.433 3.651 Q 12.782 6.886 11.872 10.882 A 408.016 408.016 0 0 1 11.741 11.454 Q 10.825 15.448 9.083 24.199 A 1439.721 1439.721 0 0 0 8.778 25.737 A 789.333 789.333 0 0 0 7.85 30.499 Q 6.543 37.324 5.743 42.246 A 1.622 1.622 0 0 1 5.514 42.819 A 1.525 1.525 0 0 1 5.281 43.097 A 1.716 1.716 0 0 1 5.071 43.268 Q 4.954 43.348 4.84 43.39 A 0.71 0.71 0 0 1 4.594 43.436 A 0.79 0.79 0 0 1 4.243 43.362 Q 3.873 43.181 3.815 42.554 A 139.453 139.453 0 0 1 4.63 36.873 Q 6.138 27.614 9.352 13.925 A 282.31 282.31 0 0 1 9.642 12.682 Q 10.049 10.951 10.296 10.028 Q 10.547 9.086 10.666 8.481 A 8.885 8.885 0 0 0 10.726 8.142 A 237.601 237.601 0 0 0 10.831 7.462 A 289.035 289.035 0 0 0 10.942 6.737 Q 11.054 5.988 11.167 5.199 Q 11.28 4.409 11.423 3.651 A 781.967 781.967 0 0 0 9.274 3.598 Q 6.185 3.528 4.81 3.528 A 60.397 60.397 0 0 0 2.92 3.558 A 76.014 76.014 0 0 0 0.882 3.651 Q 0.001 3.569 0.001 2.953 A 1.036 1.036 0 0 1 0.594 2.006 Q 1.046 1.753 1.843 1.666 A 7.066 7.066 0 0 1 2.133 1.641 A 17.283 17.283 0 0 1 3.323 1.6 Z M 58.284 33.366 L 58.181 33.428 A 12.035 12.035 0 0 1 58.089 33.991 Q 57.923 34.893 57.536 36.518 A 145.195 145.195 0 0 1 57.279 37.581 Q 56.63 40.222 56.446 41.053 A 12.111 12.111 0 0 0 56.397 41.282 A 2.312 2.312 0 0 1 56.28 41.698 Q 56.022 42.349 55.413 42.349 Q 54.777 42.349 54.51 42.123 Q 54.255 41.907 54.244 41.767 A 0.161 0.161 0 0 1 54.244 41.754 L 54.244 41.59 Q 54.244 40.401 56.141 32.423 A 4325.972 4325.972 0 0 0 56.802 29.638 Q 58.021 24.495 58.443 22.647 A 124.536 124.536 0 0 0 58.509 22.354 A 559.276 559.276 0 0 0 59.594 17.618 Q 61.06 11.074 61.693 7.339 A 80.555 80.555 0 0 0 61.709 7.25 Q 62.549 2.256 62.765 1.805 A 1.485 1.485 0 0 1 62.866 1.624 Q 62.999 1.424 63.155 1.372 A 0.354 0.354 0 0 1 63.267 1.354 A 1.885 1.885 0 0 1 63.811 1.425 Q 64.409 1.605 64.565 2.241 A 2.126 2.126 0 0 1 64.621 2.748 A 2.437 2.437 0 0 1 64.604 2.997 Q 64.536 3.621 64.199 5.266 A 103.36 103.36 0 0 1 64.139 5.558 Q 63.657 7.875 63.236 9.916 A 249.366 249.366 0 0 1 62.992 11.085 Q 62.575 13.061 61.852 16.376 A 6065.732 6065.732 0 0 0 61.462 18.166 Q 60.971 20.419 60.715 21.605 A 438.813 438.813 0 0 0 60.581 22.231 A 8.112 8.112 0 0 1 61.573 21.338 Q 62.143 20.911 62.709 20.683 A 3.403 3.403 0 0 1 63.985 20.426 A 3.774 3.774 0 0 1 64.842 20.516 Q 65.841 20.75 66.292 21.585 A 5.125 5.125 0 0 1 66.918 24.056 A 6.17 6.17 0 0 1 65.174 28.403 A 15.36 15.36 0 0 1 63.765 29.718 Q 62.992 30.36 62.027 31.032 A 39.818 39.818 0 0 1 59.904 32.403 Q 60.478 35.561 62.549 37.919 A 9.351 9.351 0 0 0 63.79 39.11 Q 64.534 39.694 65.295 39.986 A 4.273 4.273 0 0 0 66.836 40.278 A 1.7 1.7 0 0 0 67.555 40.13 Q 68.053 39.901 68.353 39.314 A 5.029 5.029 0 0 0 68.543 38.927 Q 68.667 38.648 68.784 38.309 Q 68.891 37.999 69.064 37.85 A 0.56 0.56 0 0 1 69.44 37.714 A 1.212 1.212 0 0 1 69.922 37.803 Q 70.527 38.063 70.527 39.088 A 2.087 2.087 0 0 1 70.3 40.017 Q 70.156 40.31 69.92 40.601 A 4.006 4.006 0 0 1 69.83 40.708 Q 68.949 41.694 68.043 42.048 A 2.791 2.791 0 0 1 67.02 42.246 A 6.507 6.507 0 0 1 62.744 40.708 A 12.476 12.476 0 0 1 59.719 37.017 A 20.515 20.515 0 0 1 59.077 35.735 Q 58.477 34.417 58.29 33.4 A 6.027 6.027 0 0 1 58.284 33.366 Z M 37.92 24.24 L 37.92 24.404 A 0.29 0.29 0 0 1 37.912 24.447 Q 37.864 24.654 37.529 25.823 A 334.708 334.708 0 0 1 37.407 26.25 A 20.483 20.483 0 0 0 37.142 27.291 Q 36.865 28.49 36.552 30.292 A 125.12 125.12 0 0 0 36.238 32.197 A 64.628 64.628 0 0 0 35.838 35.15 Q 35.679 36.59 35.618 37.847 A 30.654 30.654 0 0 0 35.582 39.314 Q 35.74 39.419 35.944 39.548 A 24.56 24.56 0 0 0 36.012 39.591 A 3.058 3.058 0 0 1 36.178 39.703 Q 36.361 39.834 36.594 40.033 A 10.504 10.504 0 0 1 36.628 40.062 A 1.172 1.172 0 0 1 36.853 40.316 A 0.898 0.898 0 0 1 36.997 40.811 Q 36.997 41.241 36.73 41.58 A 0.867 0.867 0 0 1 36.137 41.908 A 1.274 1.274 0 0 1 35.971 41.918 Q 34.966 41.918 34.156 40.893 A 3.864 3.864 0 0 1 33.552 39.835 A 3.318 3.318 0 0 1 33.346 38.678 Q 33.346 36.114 34.741 29.86 A 34.137 34.137 0 0 1 31.069 35.83 A 38.806 38.806 0 0 1 30.229 36.894 A 92.482 92.482 0 0 1 29.1 38.25 Q 27.586 40.029 26.757 40.767 A 5.055 5.055 0 0 1 26.404 41.057 A 3.983 3.983 0 0 1 25.125 41.697 A 3.667 3.667 0 0 1 24.118 41.836 A 2.69 2.69 0 0 1 23.054 41.642 Q 21.895 41.146 21.742 39.388 A 6.523 6.523 0 0 1 21.718 38.821 A 10.36 10.36 0 0 1 21.984 36.588 Q 22.49 34.302 23.964 31.428 A 34.242 34.242 0 0 1 27.165 26.307 A 29.101 29.101 0 0 1 29.245 23.861 A 21.997 21.997 0 0 1 30.519 22.618 Q 32.693 20.678 34.188 20.672 A 2.306 2.306 0 0 1 34.197 20.672 A 3.246 3.246 0 0 1 35.006 20.764 Q 36.177 21.066 36.381 22.354 A 12.011 12.011 0 0 1 36.478 23.122 A 14.018 14.018 0 0 1 36.505 23.441 A 0.719 0.719 0 0 1 36.774 23.333 A 0.987 0.987 0 0 1 36.956 23.318 A 1.454 1.454 0 0 1 37.331 23.362 Q 37.814 23.491 37.901 23.999 A 1.435 1.435 0 0 1 37.92 24.24 Z M 44.831 41.959 L 44.564 41.959 A 3.076 3.076 0 0 1 41.959 40.585 Q 41.603 40.093 41.325 39.426 A 7.955 7.955 0 0 1 41.201 39.109 Q 41.16 39.006 41.16 38.924 L 41.16 38.719 A 1.138 1.138 0 0 1 41.207 38.383 A 0.917 0.917 0 0 1 41.426 38.011 A 1.365 1.365 0 0 1 41.65 37.822 A 0.971 0.971 0 0 1 42.001 37.673 L 42.226 37.673 A 0.827 0.827 0 0 1 42.608 37.76 Q 42.764 37.84 42.885 37.991 A 1.064 1.064 0 0 1 42.893 38.001 A 5.631 5.631 0 0 1 43.259 38.532 A 6.535 6.535 0 0 1 43.375 38.729 A 5.355 5.355 0 0 0 43.752 39.31 A 4.748 4.748 0 0 0 43.867 39.457 A 0.783 0.783 0 0 0 44.188 39.687 Q 44.321 39.741 44.488 39.765 A 2.101 2.101 0 0 0 44.79 39.785 A 3.606 3.606 0 0 0 45.775 39.658 A 2.695 2.695 0 0 0 47.015 38.914 Q 47.845 38.042 47.845 36.976 A 6.535 6.535 0 0 0 47.7 35.577 A 5.747 5.747 0 0 0 47.538 34.986 A 15.534 15.534 0 0 0 47.145 33.923 Q 46.651 32.711 45.829 31.153 A 49.002 49.002 0 0 0 45.774 31.049 A 30.405 30.405 0 0 1 44.859 29.219 Q 43.682 26.635 43.682 25.02 A 6.982 6.982 0 0 1 43.847 23.46 A 4.878 4.878 0 0 1 44.769 21.492 A 3.534 3.534 0 0 1 47.188 20.159 A 5.145 5.145 0 0 1 47.845 20.118 A 4.953 4.953 0 0 1 48.855 20.216 A 3.66 3.66 0 0 1 49.958 20.631 Q 51.619 21.595 51.619 22.795 Q 51.619 23.854 50.835 23.978 A 1.418 1.418 0 0 1 50.614 23.994 A 0.799 0.799 0 0 1 50.283 23.927 A 0.776 0.776 0 0 1 50.009 23.717 A 30.309 30.309 0 0 1 49.765 23.428 A 37.979 37.979 0 0 1 49.506 23.112 A 2.817 2.817 0 0 0 48.999 22.62 A 1.901 1.901 0 0 0 47.845 22.231 Q 45.795 22.231 45.795 24.61 A 7.47 7.47 0 0 0 46.109 26.713 A 9.554 9.554 0 0 0 46.533 27.87 A 88.722 88.722 0 0 0 46.888 28.669 Q 47.399 29.803 47.784 30.557 Q 49.337 33.647 49.678 35.606 A 5.937 5.937 0 0 1 49.773 36.617 A 5.772 5.772 0 0 1 49.455 38.563 A 5.104 5.104 0 0 1 48.502 40.195 A 4.863 4.863 0 0 1 46.417 41.596 A 7.206 7.206 0 0 1 44.831 41.959 Z M 23.81 38.903 A 1.324 1.324 0 0 0 23.837 39.185 Q 23.926 39.592 24.306 39.652 A 0.897 0.897 0 0 0 24.446 39.662 A 1.091 1.091 0 0 0 24.873 39.58 A 1.034 1.034 0 0 0 25.205 39.355 Q 28.992 36.098 32.077 30.606 A 48.703 48.703 0 0 0 32.813 29.244 A 189.516 189.516 0 0 0 33.262 28.37 Q 34.458 26.025 34.748 25.265 A 1.878 1.878 0 0 0 34.833 24.999 Q 34.917 24.586 34.939 24.265 A 3.153 3.153 0 0 0 34.946 24.056 Q 34.946 23.666 34.741 23.318 A 0.807 0.807 0 0 0 34.589 23.126 A 0.607 0.607 0 0 0 34.167 22.969 Q 33.883 22.969 33.393 23.199 A 6.101 6.101 0 0 0 33.08 23.359 A 6.808 6.808 0 0 0 32.134 23.997 Q 30.852 25.01 29.193 27.029 Q 26.886 29.839 25.348 33.141 Q 24.26 35.478 23.942 37.393 A 9.227 9.227 0 0 0 23.81 38.903 Z M 79.776 47.722 L 80.309 44.994 A 76.716 76.716 0 0 1 78.671 46.22 A 61.155 61.155 0 0 1 77.12 47.312 A 27.106 27.106 0 0 0 75.626 48.401 A 20.712 20.712 0 0 0 74.485 49.362 A 8.626 8.626 0 0 0 73.071 50.983 A 5.918 5.918 0 0 0 72.045 54.305 A 4.205 4.205 0 0 0 72.187 55.431 A 3.007 3.007 0 0 0 73.172 56.971 A 1.64 1.64 0 0 0 73.763 57.259 Q 73.998 57.322 74.275 57.336 A 3.176 3.176 0 0 0 74.434 57.34 A 2.246 2.246 0 0 0 75.764 56.902 A 2.844 2.844 0 0 0 75.89 56.807 Q 76.556 56.274 77.089 55.433 A 10.418 10.418 0 0 0 77.712 54.294 A 12.897 12.897 0 0 0 78.043 53.526 A 29.346 29.346 0 0 0 78.792 51.393 A 36.591 36.591 0 0 0 79.199 49.97 A 31.124 31.124 0 0 0 79.356 49.352 Q 79.591 48.378 79.776 47.722 Z M 58.673 30.024 L 58.386 31.5 A 2.774 2.774 0 0 1 58.511 31.407 Q 58.73 31.252 59.145 30.998 A 17.299 17.299 0 0 0 59.468 30.795 Q 59.963 30.476 60.791 29.914 A 139.687 139.687 0 0 0 60.991 29.778 Q 62.283 28.896 63.534 27.46 A 4.84 4.84 0 0 0 64.785 24.189 A 3.923 3.923 0 0 0 64.736 23.542 Q 64.536 22.354 63.513 22.354 A 3.288 3.288 0 0 0 61.205 23.295 A 4.811 4.811 0 0 0 60.755 23.779 Q 59.596 25.204 59.063 28.116 A 18.552 18.552 0 0 1 59 28.459 Q 58.889 29.039 58.673 30.024 Z" vector-effect="non-scaling-stroke"/></g></svg>
