<svg width="208.253" height="141.31" viewBox="0 0 208.253 141.31" xmlns="http://www.w3.org/2000/svg"><g id="svgGroup" stroke-linecap="round" fill-rule="evenodd" font-size="9pt" stroke="#000" stroke-width="0.0mm" fill="#ec4899" style="stroke:#000;stroke-width:0.0mm;fill:#ec4899"><path d="M 187.55 105.03 L 192.433 101.319 A 40.956 40.956 0 0 1 192.727 100.228 Q 193.565 97.248 196.144 88.916 Q 198.86 80.142 199.645 77.446 A 53.302 53.302 0 0 0 199.855 76.709 A 77.7 77.7 0 0 1 196.514 84.979 Q 193.415 91.475 189.552 95.801 Q 185.737 100.07 182.261 100.369 A 6.087 6.087 0 0 1 181.74 100.391 A 7.4 7.4 0 0 1 176.136 97.987 A 9.525 9.525 0 0 1 175.636 97.413 A 9.916 9.916 0 0 1 173.919 94.084 Q 173.497 92.715 173.339 91.077 A 21.466 21.466 0 0 1 173.244 89.014 Q 173.244 82.591 176.042 70.514 A 264.024 264.024 0 0 1 178.029 62.549 A 719.471 719.471 0 0 0 178.59 60.431 Q 180.318 53.859 180.416 52.881 A 1.012 1.012 0 0 0 180.421 52.784 A 7.818 7.818 0 0 1 180.382 52.443 Q 180.305 51.622 180.46 51.148 A 1.137 1.137 0 0 1 180.617 50.83 A 5.827 5.827 0 0 1 181.549 49.826 A 3.639 3.639 0 0 1 183.937 48.926 Q 185.455 48.926 185.763 50.168 A 2.964 2.964 0 0 1 185.841 50.879 A 8.043 8.043 0 0 1 185.716 51.989 Q 185.262 54.814 183.157 63.524 A 901.46 901.46 0 0 1 182.13 67.725 Q 178.419 82.764 178.419 87.867 Q 178.419 92.515 179.453 94.023 A 2.176 2.176 0 0 0 179.665 94.288 A 4.024 4.024 0 0 0 182.576 95.604 A 4.864 4.864 0 0 0 182.716 95.606 A 5.64 5.64 0 0 0 185.539 94.78 Q 187.528 93.636 189.614 90.909 A 31.333 31.333 0 0 0 190.822 89.209 A 41.068 41.068 0 0 0 193.825 83.764 Q 196.208 78.623 198.122 71.582 Q 200.634 62.336 201.823 57.707 A 241.272 241.272 0 0 0 202.272 55.933 A 63.059 63.059 0 0 1 202.74 54.154 Q 203.552 51.252 204.201 50.318 A 2.681 2.681 0 0 1 206.158 49.151 A 3.89 3.89 0 0 1 206.642 49.121 A 3.264 3.264 0 0 1 207.22 49.168 Q 208.219 49.349 208.252 50.231 A 1.637 1.637 0 0 1 208.253 50.293 A 4.571 4.571 0 0 1 208.185 50.869 Q 207.776 53.44 204.917 66.152 A 2501.189 2501.189 0 0 1 203.883 70.728 Q 199.513 89.991 197.951 97.12 A 82.578 82.578 0 0 0 199.794 95.459 A 61.882 61.882 0 0 0 201.417 93.897 A 75.481 75.481 0 0 1 202.505 92.83 Q 203.046 92.311 203.535 91.865 A 38.694 38.694 0 0 1 204.103 91.358 A 6.625 6.625 0 0 1 204.705 90.885 Q 205.359 90.435 205.909 90.351 A 1.628 1.628 0 0 1 206.154 90.332 A 3.02 3.02 0 0 1 206.854 90.406 Q 207.795 90.631 207.97 91.543 A 2.396 2.396 0 0 1 208.009 91.993 A 2.849 2.849 0 0 1 207.689 93.286 A 4.062 4.062 0 0 1 207.228 93.995 A 184.037 184.037 0 0 1 201.894 98.584 A 142.169 142.169 0 0 1 196.828 102.588 A 360.236 360.236 0 0 1 195.009 111.938 Q 191.795 127.286 188.82 133.008 A 16.831 16.831 0 0 1 186.747 136.118 A 19.437 19.437 0 0 1 186.134 136.817 Q 182.179 141.309 177.101 141.309 A 11.007 11.007 0 0 1 173.615 140.784 A 8.839 8.839 0 0 1 169.24 137.574 A 16.703 16.703 0 0 1 167.599 134.914 Q 166.796 133.263 166.557 131.652 A 9.236 9.236 0 0 1 166.457 130.298 A 24.045 24.045 0 0 1 166.613 127.481 Q 166.827 125.666 167.335 124.17 A 18.504 18.504 0 0 1 169.728 119.434 A 23.398 23.398 0 0 1 173.292 115.455 A 57.105 57.105 0 0 1 177.669 111.928 A 60.994 60.994 0 0 1 177.687 111.914 Q 180.031 110.205 182.545 108.545 Q 185.06 106.885 187.55 105.03 Z M 7.912 3.809 L 28.371 4.2 A 13.228 13.228 0 0 1 29.011 2.615 Q 30.291 0 32.179 0 A 1.714 1.714 0 0 1 32.946 0.163 Q 33.627 0.499 33.853 1.528 A 4.014 4.014 0 0 1 33.888 1.709 L 34.083 3.711 L 33.986 4.2 A 190.669 190.669 0 0 0 36.304 4.105 Q 37.72 4.038 38.942 3.955 A 1838.47 1838.47 0 0 1 41.042 3.815 A 1479.466 1479.466 0 0 1 42.995 3.687 Q 44.875 3.565 48.634 3.296 A 101.809 101.809 0 0 1 52.589 3.095 A 134.583 134.583 0 0 1 56.935 3.028 L 60.548 3.028 A 9.034 9.034 0 0 0 61.528 2.973 A 10.273 10.273 0 0 0 61.867 2.93 Q 62.684 3.14 63.11 3.529 A 1.376 1.376 0 0 1 63.576 4.59 A 2.52 2.52 0 0 1 62.115 6.996 Q 61.027 7.555 59.128 7.611 A 14.702 14.702 0 0 1 58.693 7.618 A 187.492 187.492 0 0 0 50.415 7.808 A 228.292 228.292 0 0 0 45.119 8.106 A 302.388 302.388 0 0 1 38.222 8.496 A 222.94 222.94 0 0 1 31.984 8.692 Q 30.324 16.944 27.956 27.271 A 481.233 481.233 0 0 0 26.627 33.269 Q 24.416 43.518 20.9 61.28 A 1879.361 1879.361 0 0 0 18.69 72.617 Q 15.784 87.788 13.932 99.01 A 628.989 628.989 0 0 0 13.673 100.586 A 3.862 3.862 0 0 1 13.13 101.95 A 3.63 3.63 0 0 1 12.575 102.613 Q 12.035 103.122 11.524 103.309 A 1.691 1.691 0 0 1 10.939 103.418 A 1.88 1.88 0 0 1 10.102 103.243 Q 9.338 102.868 9.133 101.692 A 4.723 4.723 0 0 1 9.083 101.319 Q 11.364 82.402 17.88 52.495 A 1233.455 1233.455 0 0 1 22.267 33.155 A 672.166 672.166 0 0 1 22.957 30.194 Q 23.879 26.28 24.454 24.101 A 89.03 89.03 0 0 1 24.513 23.877 A 91.477 91.477 0 0 0 24.87 22.498 Q 25.355 20.557 25.539 19.385 A 565.662 565.662 0 0 0 25.789 17.768 A 687.981 687.981 0 0 0 26.051 16.04 A 483.273 483.273 0 0 0 26.588 12.378 A 82.899 82.899 0 0 1 27.199 8.692 A 1861.785 1861.785 0 0 0 22.081 8.567 Q 16.45 8.438 13.211 8.408 A 191.095 191.095 0 0 0 11.452 8.399 Q 7.13 8.399 2.101 8.692 A 4.557 4.557 0 0 1 1.335 8.56 Q 0.001 8.199 0.001 7.032 Q 0.001 4.248 5.08 3.907 Q 6.496 3.809 7.912 3.809 Z M 138.771 79.444 L 138.527 79.59 Q 138.185 82.129 136.378 89.478 Q 134.572 96.827 134.279 98.291 A 5.506 5.506 0 0 1 134 99.281 Q 133.798 99.789 133.506 100.131 A 1.965 1.965 0 0 1 131.935 100.83 A 6.727 6.727 0 0 1 131.193 100.793 Q 130.253 100.688 129.787 100.293 Q 129.152 99.756 129.152 99.414 L 129.152 99.024 A 12.633 12.633 0 0 1 129.311 97.394 Q 129.999 92.63 133.668 77.198 A 10302.4 10302.4 0 0 0 135.243 70.568 Q 138.396 57.27 139.308 53.223 A 1331.599 1331.599 0 0 0 141.89 41.948 Q 145.382 26.366 146.889 17.474 A 191.187 191.187 0 0 0 146.925 17.261 A 745.452 745.452 0 0 1 147.403 14.458 Q 148.975 5.331 149.431 4.317 A 0.957 0.957 0 0 1 149.44 4.297 A 3.535 3.535 0 0 1 149.681 3.866 Q 149.997 3.39 150.368 3.267 A 0.844 0.844 0 0 1 150.636 3.223 Q 153.859 3.223 153.859 6.543 A 5.803 5.803 0 0 1 153.819 7.136 Q 153.658 8.621 152.855 12.538 A 246.166 246.166 0 0 1 152.711 13.233 A 6299.78 6299.78 0 0 0 151.601 18.586 A 5202.957 5202.957 0 0 0 150.563 23.609 A 593.719 593.719 0 0 1 149.982 26.392 Q 149.038 30.863 147.437 38.211 A 3941.424 3941.424 0 0 1 147.267 38.99 A 14453.679 14453.679 0 0 0 146.338 43.253 Q 144.812 50.26 144.24 52.93 Q 148.341 48.633 152.345 48.633 A 8.986 8.986 0 0 1 154.386 48.848 Q 155.687 49.152 156.598 49.884 A 4.886 4.886 0 0 1 157.838 51.392 Q 159.328 54.151 159.328 57.276 A 14.691 14.691 0 0 1 155.177 67.627 A 36.57 36.57 0 0 1 151.822 70.757 Q 149.981 72.287 147.683 73.885 A 94.804 94.804 0 0 1 142.628 77.149 A 26.783 26.783 0 0 0 148.927 90.284 A 22.265 22.265 0 0 0 151.881 93.119 Q 153.651 94.509 155.464 95.204 A 10.175 10.175 0 0 0 159.132 95.899 A 4.049 4.049 0 0 0 160.846 95.549 Q 161.754 95.13 162.385 94.213 A 5.429 5.429 0 0 0 162.746 93.604 A 11.975 11.975 0 0 0 163.198 92.684 Q 163.414 92.195 163.622 91.63 A 22.283 22.283 0 0 0 163.771 91.211 A 3.371 3.371 0 0 1 164.032 90.625 Q 164.211 90.315 164.439 90.12 A 1.333 1.333 0 0 1 165.333 89.795 A 2.885 2.885 0 0 1 166.481 90.006 Q 167.921 90.626 167.921 93.067 A 4.969 4.969 0 0 1 167.381 95.279 Q 166.975 96.106 166.261 96.924 A 14.961 14.961 0 0 1 164.332 98.756 Q 163.178 99.657 162.007 100.114 A 6.646 6.646 0 0 1 159.572 100.586 A 15.493 15.493 0 0 1 149.391 96.924 A 29.704 29.704 0 0 1 142.189 88.135 Q 139.406 83.008 138.771 79.444 Z M 90.285 57.715 L 90.285 58.106 A 0.691 0.691 0 0 1 90.266 58.207 Q 90.152 58.699 89.356 61.483 A 796.797 796.797 0 0 1 89.064 62.5 A 48.769 48.769 0 0 0 88.432 64.978 Q 87.774 67.833 87.029 72.125 A 297.902 297.902 0 0 0 86.281 76.661 Q 85.088 84.225 84.806 90.112 A 72.985 72.985 0 0 0 84.718 93.604 Q 85.096 93.856 85.582 94.162 A 58.481 58.481 0 0 0 85.744 94.263 Q 86.33 94.629 87.208 95.386 A 2.79 2.79 0 0 1 87.744 95.992 A 2.138 2.138 0 0 1 88.087 97.168 A 2.88 2.88 0 0 1 87.453 98.999 A 2.065 2.065 0 0 1 86.041 99.78 A 3.034 3.034 0 0 1 85.646 99.805 A 4.697 4.697 0 0 1 82.836 98.851 Q 82.048 98.279 81.325 97.364 A 9.199 9.199 0 0 1 79.886 94.845 A 7.899 7.899 0 0 1 79.396 92.09 A 36.851 36.851 0 0 1 79.604 88.489 Q 80.198 82.548 82.493 72.104 A 339.724 339.724 0 0 1 82.716 71.094 A 81.279 81.279 0 0 1 73.974 85.309 A 92.396 92.396 0 0 1 71.974 87.842 A 220.195 220.195 0 0 1 69.285 91.07 Q 65.68 95.308 63.706 97.065 A 12.037 12.037 0 0 1 62.868 97.754 Q 60.353 99.61 57.423 99.61 Q 51.71 99.61 51.71 92.432 A 24.667 24.667 0 0 1 52.342 87.114 Q 53.548 81.671 57.057 74.83 A 81.528 81.528 0 0 1 64.679 62.635 A 69.288 69.288 0 0 1 69.63 56.812 A 52.375 52.375 0 0 1 72.665 53.853 Q 77.856 49.219 81.422 49.219 A 7.728 7.728 0 0 1 83.346 49.439 Q 86.137 50.158 86.623 53.223 A 28.598 28.598 0 0 1 86.853 55.053 A 33.376 33.376 0 0 1 86.916 55.811 A 1.711 1.711 0 0 1 87.558 55.556 A 2.349 2.349 0 0 1 87.99 55.518 Q 90.285 55.518 90.285 57.715 Z M 106.74 99.903 L 106.105 99.903 A 7.323 7.323 0 0 1 99.902 96.631 Q 99.054 95.46 98.393 93.871 A 18.941 18.941 0 0 1 98.097 93.116 A 1.588 1.588 0 0 1 98.036 92.932 Q 98.011 92.838 98.003 92.752 A 0.841 0.841 0 0 1 98 92.676 L 98 92.188 A 2.711 2.711 0 0 1 98.112 91.388 A 2.184 2.184 0 0 1 98.634 90.503 A 3.25 3.25 0 0 1 99.166 90.052 A 2.311 2.311 0 0 1 100.001 89.698 L 100.539 89.698 Q 101.5 89.698 102.107 90.455 A 2.533 2.533 0 0 1 102.125 90.479 A 13.408 13.408 0 0 1 102.998 91.743 A 15.561 15.561 0 0 1 103.273 92.212 A 12.751 12.751 0 0 0 104.172 93.596 A 11.305 11.305 0 0 0 104.445 93.946 A 1.865 1.865 0 0 0 105.211 94.493 Q 105.788 94.727 106.642 94.727 Q 109.962 94.727 111.94 92.652 A 7.667 7.667 0 0 0 113.252 90.827 A 6.102 6.102 0 0 0 113.917 88.038 A 15.56 15.56 0 0 0 113.571 84.708 A 13.683 13.683 0 0 0 113.185 83.301 Q 111.991 79.625 109.117 74.174 A 116.741 116.741 0 0 0 108.986 73.926 A 72.392 72.392 0 0 1 106.807 69.568 Q 104.005 63.416 104.005 59.571 A 16.624 16.624 0 0 1 104.398 55.857 A 11.615 11.615 0 0 1 106.593 51.172 Q 109.181 47.901 113.917 47.901 A 11.793 11.793 0 0 1 116.322 48.134 A 8.714 8.714 0 0 1 118.947 49.121 A 13.088 13.088 0 0 1 120.654 50.285 Q 122.902 52.119 122.902 54.273 Q 122.902 57.129 120.509 57.129 A 1.903 1.903 0 0 1 119.721 56.97 A 1.849 1.849 0 0 1 119.069 56.47 A 72.168 72.168 0 0 1 118.489 55.78 A 90.43 90.43 0 0 1 117.873 55.03 A 6.706 6.706 0 0 0 116.664 53.856 A 4.525 4.525 0 0 0 113.917 52.93 A 5.98 5.98 0 0 0 111.853 53.257 Q 109.218 54.223 109.047 58.047 A 12.197 12.197 0 0 0 109.035 58.594 A 17.786 17.786 0 0 0 109.783 63.603 A 22.748 22.748 0 0 0 110.792 66.358 Q 112.365 69.939 113.508 72.232 A 62.636 62.636 0 0 0 113.771 72.754 Q 117.469 80.113 118.28 84.777 A 14.135 14.135 0 0 1 118.507 87.183 A 13.744 13.744 0 0 1 117.75 91.816 A 12.152 12.152 0 0 1 115.48 95.704 A 11.578 11.578 0 0 1 110.518 99.039 A 17.157 17.157 0 0 1 106.74 99.903 Z M 56.691 92.627 A 3.151 3.151 0 0 0 56.756 93.298 Q 56.968 94.267 57.871 94.409 A 2.136 2.136 0 0 0 58.205 94.434 A 2.597 2.597 0 0 0 59.222 94.239 A 2.461 2.461 0 0 0 60.011 93.702 A 64.868 64.868 0 0 0 69.026 84.084 Q 73.872 77.8 78.126 69.629 A 451.229 451.229 0 0 0 79.195 67.549 Q 82.044 61.964 82.733 60.155 A 4.472 4.472 0 0 0 82.936 59.522 Q 83.205 58.204 83.205 57.276 A 3.413 3.413 0 0 0 82.716 55.518 A 1.921 1.921 0 0 0 82.354 55.063 A 1.444 1.444 0 0 0 81.349 54.688 A 2.474 2.474 0 0 0 80.793 54.76 Q 79.993 54.947 78.761 55.616 A 16.209 16.209 0 0 0 76.509 57.136 Q 74.232 58.935 71.456 62.069 A 80.235 80.235 0 0 0 69.508 64.356 Q 64.015 71.045 60.353 78.907 Q 57.761 84.471 57.004 89.032 A 21.968 21.968 0 0 0 56.691 92.627 Z M 189.943 113.623 L 191.212 107.129 A 182.654 182.654 0 0 1 187.312 110.047 A 145.607 145.607 0 0 1 183.62 112.647 A 64.537 64.537 0 0 0 180.061 115.241 A 49.315 49.315 0 0 0 177.345 117.53 A 20.537 20.537 0 0 0 173.978 121.388 A 14.09 14.09 0 0 0 171.535 129.297 A 10.011 10.011 0 0 0 171.874 131.979 A 7.159 7.159 0 0 0 174.22 135.645 A 3.906 3.906 0 0 0 175.627 136.331 Q 176.186 136.482 176.846 136.515 A 7.561 7.561 0 0 0 177.223 136.524 A 5.347 5.347 0 0 0 180.39 135.481 A 6.771 6.771 0 0 0 180.69 135.254 A 12.06 12.06 0 0 0 182.55 133.381 A 15.348 15.348 0 0 0 183.546 131.983 A 24.804 24.804 0 0 0 185.028 129.271 A 30.707 30.707 0 0 0 185.817 127.442 A 69.872 69.872 0 0 0 187.599 122.364 A 87.122 87.122 0 0 0 188.569 118.976 A 74.106 74.106 0 0 0 188.942 117.505 A 169.423 169.423 0 0 1 189.215 116.393 Q 189.612 114.802 189.94 113.633 A 47.439 47.439 0 0 1 189.943 113.623 Z M 139.699 71.485 L 139.015 75 Q 139.495 74.616 140.778 73.831 A 60.234 60.234 0 0 1 140.822 73.804 A 41.189 41.189 0 0 0 141.591 73.32 Q 142.909 72.474 145.216 70.899 A 28.128 28.128 0 0 0 148.457 68.296 A 37.887 37.887 0 0 0 151.271 65.381 A 11.524 11.524 0 0 0 154.25 57.593 Q 154.25 53.343 151.386 53.226 A 4.027 4.027 0 0 0 151.222 53.223 A 7.829 7.829 0 0 0 145.726 55.463 A 11.456 11.456 0 0 0 144.655 56.617 Q 141.924 59.976 140.652 66.805 A 46.941 46.941 0 0 0 140.626 66.944 A 44.17 44.17 0 0 1 140.477 67.759 Q 140.225 69.072 139.749 71.254 A 309.315 309.315 0 0 1 139.699 71.485 Z" vector-effect="non-scaling-stroke"/></g></svg>
